<svg width="159" height="27" viewBox="0 0 159 27" fill="none" xmlns="http://www.w3.org/2000/svg">
<path d="M9.2583 20L5.6083 13.375H4.5833V20H0.308301V2.45H7.4833C8.86663 2.45 10.0416 2.69167 11.0083 3.175C11.9916 3.65833 12.725 4.325 13.2083 5.175C13.6916 6.00833 13.9333 6.94167 13.9333 7.975C13.9333 9.14167 13.6 10.1833 12.9333 11.1C12.2833 12.0167 11.3166 12.6667 10.0333 13.05L14.0833 20H9.2583ZM4.5833 10.35H7.2333C8.01663 10.35 8.59997 10.1583 8.9833 9.775C9.3833 9.39167 9.5833 8.85 9.5833 8.15C9.5833 7.48333 9.3833 6.95833 8.9833 6.575C8.59997 6.19167 8.01663 6 7.2333 6H4.5833V10.35ZM20.8919 13C20.8919 11.5667 21.1586 10.3083 21.6919 9.225C22.2419 8.14167 22.9836 7.30833 23.9169 6.725C24.8502 6.14167 25.8919 5.85 27.0419 5.85C28.0252 5.85 28.8836 6.05 29.6169 6.45C30.3669 6.85 30.9419 7.375 31.3419 8.025V6.05H35.6169V20H31.3419V18.025C30.9252 18.675 30.3419 19.2 29.5919 19.6C28.8586 20 28.0002 20.2 27.0169 20.2C25.8836 20.2 24.8502 19.9083 23.9169 19.325C22.9836 18.725 22.2419 17.8833 21.6919 16.8C21.1586 15.7 20.8919 14.4333 20.8919 13ZM31.3419 13.025C31.3419 11.9583 31.0419 11.1167 30.4419 10.5C29.8586 9.88333 29.1419 9.575 28.2919 9.575C27.4419 9.575 26.7169 9.88333 26.1169 10.5C25.5336 11.1 25.2419 11.9333 25.2419 13C25.2419 14.0667 25.5336 14.9167 26.1169 15.55C26.7169 16.1667 27.4419 16.475 28.2919 16.475C29.1419 16.475 29.8586 16.1667 30.4419 15.55C31.0419 14.9333 31.3419 14.0917 31.3419 13.025ZM57.6097 6.05V20H53.3347V18.1C52.9013 18.7167 52.3097 19.2167 51.5597 19.6C50.8263 19.9667 50.0097 20.15 49.1097 20.15C48.043 20.15 47.1013 19.9167 46.2847 19.45C45.468 18.9667 44.8347 18.275 44.3847 17.375C43.9347 16.475 43.7097 15.4167 43.7097 14.2V6.05H47.9597V13.625C47.9597 14.5583 48.2013 15.2833 48.6847 15.8C49.168 16.3167 49.818 16.575 50.6347 16.575C51.468 16.575 52.1263 16.3167 52.6097 15.8C53.093 15.2833 53.3347 14.5583 53.3347 13.625V6.05H57.6097ZM70.0804 1.5V20H65.8054V1.5H70.0804Z" fill="#172774"/>
<path d="M79.8534 4.075C79.4201 4.075 79.0534 3.925 78.7534 3.625C78.4534 3.325 78.3034 2.95833 78.3034 2.525C78.3034 2.09167 78.4534 1.725 78.7534 1.425C79.0534 1.125 79.4201 0.974999 79.8534 0.974999C80.2701 0.974999 80.6201 1.125 80.9034 1.425C81.2034 1.725 81.3534 2.09167 81.3534 2.525C81.3534 2.95833 81.2034 3.325 80.9034 3.625C80.6201 3.925 80.2701 4.075 79.8534 4.075ZM80.9534 6.3V20H78.6784V6.3H80.9534ZM89.1058 13.1C89.1058 11.7 89.3891 10.475 89.9558 9.425C90.5224 8.35833 91.2974 7.53333 92.2808 6.95C93.2808 6.36667 94.3974 6.075 95.6308 6.075C96.8141 6.075 97.8474 6.34167 98.7308 6.875C99.6308 7.39167 100.289 8.03333 100.706 8.8V6.3H103.006V26.5H100.706V17.475C100.272 18.2417 99.6058 18.8917 98.7058 19.425C97.8058 19.9583 96.7558 20.225 95.5558 20.225C94.3558 20.225 93.2641 19.925 92.2808 19.325C91.2974 18.725 90.5224 17.8833 89.9558 16.8C89.3891 15.7167 89.1058 14.4833 89.1058 13.1ZM100.706 13.125C100.706 12.0917 100.497 11.1917 100.081 10.425C99.6641 9.65833 99.0974 9.075 98.3808 8.675C97.6808 8.25833 96.9058 8.05 96.0558 8.05C95.2058 8.05 94.4308 8.25 93.7308 8.65C93.0308 9.05 92.4724 9.63333 92.0558 10.4C91.6391 11.1667 91.4308 12.0667 91.4308 13.1C91.4308 14.15 91.6391 15.0667 92.0558 15.85C92.4724 16.6167 93.0308 17.2083 93.7308 17.625C94.4308 18.025 95.2058 18.225 96.0558 18.225C96.9058 18.225 97.6808 18.025 98.3808 17.625C99.0974 17.2083 99.6641 16.6167 100.081 15.85C100.497 15.0667 100.706 14.1583 100.706 13.125ZM114.25 8.85C114.717 8.03333 115.4 7.36667 116.3 6.85C117.2 6.33333 118.225 6.075 119.375 6.075C120.609 6.075 121.717 6.36667 122.7 6.95C123.684 7.53333 124.459 8.35833 125.025 9.425C125.592 10.475 125.875 11.7 125.875 13.1C125.875 14.4833 125.592 15.7167 125.025 16.8C124.459 17.8833 123.675 18.725 122.675 19.325C121.692 19.925 120.592 20.225 119.375 20.225C118.192 20.225 117.15 19.9667 116.25 19.45C115.367 18.9333 114.7 18.275 114.25 17.475V20H111.975V1.5H114.25V8.85ZM123.55 13.1C123.55 12.0667 123.342 11.1667 122.925 10.4C122.509 9.63333 121.942 9.05 121.225 8.65C120.525 8.25 119.75 8.05 118.9 8.05C118.067 8.05 117.292 8.25833 116.575 8.675C115.875 9.075 115.309 9.66667 114.875 10.45C114.459 11.2167 114.25 12.1083 114.25 13.125C114.25 14.1583 114.459 15.0667 114.875 15.85C115.309 16.6167 115.875 17.2083 116.575 17.625C117.292 18.025 118.067 18.225 118.9 18.225C119.75 18.225 120.525 18.025 121.225 17.625C121.942 17.2083 122.509 16.6167 122.925 15.85C123.342 15.0667 123.55 14.15 123.55 13.1ZM133.145 13.1C133.145 11.7 133.428 10.475 133.995 9.425C134.561 8.35833 135.336 7.53333 136.32 6.95C137.32 6.36667 138.428 6.075 139.645 6.075C140.845 6.075 141.886 6.33333 142.77 6.85C143.653 7.36667 144.311 8.01667 144.745 8.8V6.3H147.045V20H144.745V17.45C144.295 18.25 143.62 18.9167 142.72 19.45C141.836 19.9667 140.803 20.225 139.62 20.225C138.403 20.225 137.303 19.925 136.32 19.325C135.336 18.725 134.561 17.8833 133.995 16.8C133.428 15.7167 133.145 14.4833 133.145 13.1ZM144.745 13.125C144.745 12.0917 144.536 11.1917 144.12 10.425C143.703 9.65833 143.136 9.075 142.42 8.675C141.72 8.25833 140.945 8.05 140.095 8.05C139.245 8.05 138.47 8.25 137.77 8.65C137.07 9.05 136.511 9.63333 136.095 10.4C135.678 11.1667 135.47 12.0667 135.47 13.1C135.47 14.15 135.678 15.0667 136.095 15.85C136.511 16.6167 137.07 17.2083 137.77 17.625C138.47 18.025 139.245 18.225 140.095 18.225C140.945 18.225 141.72 18.025 142.42 17.625C143.136 17.2083 143.703 16.6167 144.12 15.85C144.536 15.0667 144.745 14.1583 144.745 13.125ZM158.289 1.5V20H156.014V1.5H158.289Z" fill="#14279B"/>
</svg>
