<svg width="428" height="205" viewBox="0 0 428 205" fill="none" xmlns="http://www.w3.org/2000/svg">
<path d="M-96 205L-66.3667 179.375C-36.7333 153.75 22.5333 102.5 81.8 102.5C141.067 102.5 200.333 153.75 259.6 153.75C318.867 153.75 378.133 102.5 437.4 94.0117C496.667 84.8828 555.933 120.117 615.2 110.988C674.467 102.5 733.733 51.25 763.367 25.625L793 0V205H763.367C733.733 205 674.467 205 615.2 205C555.933 205 496.667 205 437.4 205C378.133 205 318.867 205 259.6 205C200.333 205 141.067 205 81.8 205C22.5333 205 -36.7333 205 -66.3667 205H-96Z" fill="#4581F6"/>
</svg>
