<svg width="1440" height="334" viewBox="0 0 1440 334" fill="none" xmlns="http://www.w3.org/2000/svg">
<path d="M-208 334L-150.7 292.25C-93.4 250.5 21.2 167 135.8 167C250.4 167 365 250.5 479.6 250.5C594.2 250.5 708.8 167 823.4 153.17C938 138.297 1052.6 195.703 1167.2 180.83C1281.8 167 1396.4 83.5 1453.7 41.75L1511 0V334H1453.7C1396.4 334 1281.8 334 1167.2 334C1052.6 334 938 334 823.4 334C708.8 334 594.2 334 479.6 334C365 334 250.4 334 135.8 334C21.2 334 -93.4 334 -150.7 334H-208Z" fill="#4581F6"/>
</svg>
