<svg width="100" height="100" viewBox="0 0 100 100" fill="none" xmlns="http://www.w3.org/2000/svg">
<path d="M19.9583 43.7501H11.625C10.5199 43.7501 9.46012 44.189 8.67872 44.9704C7.89731 45.7518 7.45833 46.8117 7.45833 47.9167C7.45833 49.0218 7.89731 50.0816 8.67872 50.863C9.46012 51.6444 10.5199 52.0834 11.625 52.0834H19.9583C21.0634 52.0834 22.1232 51.6444 22.9046 50.863C23.686 50.0816 24.125 49.0218 24.125 47.9167C24.125 46.8117 23.686 45.7518 22.9046 44.9704C22.1232 44.189 21.0634 43.7501 19.9583 43.7501ZM89.875 31.9167V31.6667C88.6812 30.2075 87.1728 29.0372 85.4627 28.2435C83.7526 27.4498 81.8851 27.0532 80 27.0834H46.9583C43.8967 27.0559 40.9314 28.153 38.625 30.1667V30.1667C36.4708 32.0648 35.0546 34.6613 34.625 37.5001L30.9583 58.3334C30.643 60.1325 30.7258 61.9789 31.201 63.7426C31.6761 65.5063 32.5319 67.1444 33.7083 68.5417C34.8786 69.9344 36.3387 71.0548 37.9867 71.8248C39.6347 72.5949 41.431 72.996 43.25 73.0001H76.3333C79.3052 73.045 82.1958 72.0295 84.4866 70.1358C86.7774 68.242 88.3185 65.594 88.8333 62.6667L92.5 41.8334C92.7888 40.0888 92.7041 38.3028 92.2516 36.5934C91.7991 34.8839 90.9891 33.29 89.875 31.9167V31.9167ZM78.4583 35.4167L64.2917 46.9167C63.4541 47.5918 62.3878 47.9167 61.3161 47.8235C60.2443 47.7303 59.2502 47.2262 58.5417 46.4167L48.8333 35.4167H78.4583ZM80.4583 61.1251C80.2897 62.1034 79.7772 62.9893 79.0134 63.6233C78.2495 64.2574 77.2843 64.5978 76.2917 64.5834H43.25C42.6449 64.5783 42.0482 64.4415 41.5013 64.1824C40.9545 63.9234 40.4706 63.5484 40.0833 63.0834C39.6951 62.6209 39.412 62.0795 39.2538 61.4967C39.0955 60.914 39.0658 60.3038 39.1667 59.7084L42.5 40.8334L52.2917 51.9167C54.4229 54.3391 57.4083 55.8435 60.6233 56.1153C63.8384 56.3871 67.034 55.4052 69.5417 53.3751L83.875 41.6667L80.4583 61.1251ZM24.125 27.0834H11.625C10.5199 27.0834 9.46012 27.5224 8.67872 28.3038C7.89731 29.0852 7.45833 30.145 7.45833 31.2501C7.45833 32.3551 7.89731 33.4149 8.67872 34.1963C9.46012 34.9777 10.5199 35.4167 11.625 35.4167H24.125C25.2301 35.4167 26.2899 34.9777 27.0713 34.1963C27.8527 33.4149 28.2917 32.3551 28.2917 31.2501C28.2917 30.145 27.8527 29.0852 27.0713 28.3038C26.2899 27.5224 25.2301 27.0834 24.125 27.0834Z" fill="white"/>
</svg>
