<svg width="100" height="100" viewBox="0 0 100 100" fill="none" xmlns="http://www.w3.org/2000/svg">
<path d="M72.25 22.7502C71.2611 22.7502 70.2944 23.0434 69.4722 23.5928C68.6499 24.1422 68.009 24.9231 67.6306 25.8367C67.2522 26.7504 67.1532 27.7557 67.3461 28.7256C67.539 29.6955 68.0152 30.5864 68.7145 31.2857C69.4137 31.985 70.3047 32.4612 71.2746 32.6541C72.2445 32.847 73.2498 32.748 74.1634 32.3696C75.0771 31.9911 75.8579 31.3503 76.4074 30.528C76.9568 29.7058 77.25 28.7391 77.25 27.7502C77.25 26.4241 76.7232 25.1523 75.7855 24.2146C74.8479 23.2769 73.5761 22.7502 72.25 22.7502ZM91.4167 32.8335C91.3356 29.3764 90.6882 25.956 89.5 22.7085C88.4406 19.9299 86.7916 17.4138 84.6667 15.3335C82.6034 13.1978 80.0815 11.5592 77.2917 10.5418C74.0527 9.3175 70.6285 8.6552 67.1667 8.5835C62.75 8.3335 61.3333 8.3335 50 8.3335C38.6667 8.3335 37.25 8.3335 32.8333 8.5835C29.3715 8.6552 25.9473 9.3175 22.7083 10.5418C19.9237 11.5695 17.4039 13.2067 15.3333 15.3335C13.1976 17.3967 11.5591 19.9187 10.5417 22.7085C9.31735 25.9474 8.65505 29.3716 8.58334 32.8335C8.33334 37.2502 8.33334 38.6668 8.33334 50.0002C8.33334 61.3335 8.33334 62.7502 8.58334 67.1668C8.65505 70.6287 9.31735 74.0529 10.5417 77.2918C11.5591 80.0817 13.1976 82.6036 15.3333 84.6668C17.4039 86.7937 19.9237 88.4308 22.7083 89.4585C25.9473 90.6828 29.3715 91.3451 32.8333 91.4168C37.25 91.6668 38.6667 91.6668 50 91.6668C61.3333 91.6668 62.75 91.6668 67.1667 91.4168C70.6285 91.3451 74.0527 90.6828 77.2917 89.4585C80.0815 88.4411 82.6034 86.8026 84.6667 84.6668C86.801 82.5942 88.4514 80.076 89.5 77.2918C90.6882 74.0443 91.3356 70.6239 91.4167 67.1668C91.4167 62.7502 91.6667 61.3335 91.6667 50.0002C91.6667 38.6668 91.6667 37.2502 91.4167 32.8335ZM83.9167 66.6668C83.8863 69.3117 83.4073 71.9323 82.5 74.4168C81.8347 76.2301 80.7662 77.8686 79.375 79.2085C78.0235 80.5856 76.3885 81.652 74.5833 82.3335C72.0988 83.2408 69.4782 83.7198 66.8333 83.7502C62.6667 83.9585 61.125 84.0002 50.1667 84.0002C39.2083 84.0002 37.6667 84.0002 33.5 83.7502C30.7537 83.8016 28.0192 83.3787 25.4167 82.5002C23.6908 81.7838 22.1307 80.7201 20.8333 79.3752C19.4504 78.0366 18.3952 76.3968 17.75 74.5835C16.7327 72.0633 16.1685 69.3833 16.0833 66.6668C16.0833 62.5002 15.8333 60.9585 15.8333 50.0002C15.8333 39.0418 15.8333 37.5002 16.0833 33.3335C16.102 30.6296 16.5956 27.9499 17.5417 25.4168C18.2752 23.6581 19.4011 22.0904 20.8333 20.8335C22.0992 19.4009 23.6637 18.2631 25.4167 17.5002C27.9565 16.5837 30.6333 16.1047 33.3333 16.0835C37.5 16.0835 39.0417 15.8335 50 15.8335C60.9583 15.8335 62.5 15.8335 66.6667 16.0835C69.3116 16.1138 71.9321 16.5929 74.4167 17.5002C76.3101 18.2029 78.0096 19.3454 79.375 20.8335C80.7404 22.1134 81.8073 23.6782 82.5 25.4168C83.4261 27.9541 83.9054 30.6326 83.9167 33.3335C84.125 37.5002 84.1667 39.0418 84.1667 50.0002C84.1667 60.9585 84.125 62.5002 83.9167 66.6668ZM50 28.6252C45.7742 28.6334 41.6457 29.894 38.1361 32.2477C34.6265 34.6015 31.8933 37.9426 30.2818 41.8491C28.6704 45.7556 28.253 50.0521 29.0825 54.1957C29.9119 58.3393 31.951 62.1441 34.942 65.1292C37.933 68.1144 41.7417 70.1461 45.8869 70.9674C50.0321 71.7888 54.3278 71.3631 58.2311 69.7441C62.1345 68.125 65.4703 65.3853 67.8172 61.8711C70.1641 58.3569 71.4167 54.226 71.4167 50.0002C71.4222 47.1881 70.8717 44.4027 69.7968 41.8041C68.722 39.2056 67.144 36.8452 65.1536 34.8587C63.1633 32.8722 60.7998 31.2988 58.1992 30.229C55.5985 29.1592 52.8121 28.6142 50 28.6252ZM50 63.8752C47.2558 63.8752 44.5732 63.0614 42.2915 61.5368C40.0097 60.0122 38.2313 57.8452 37.1812 55.3099C36.131 52.7746 35.8562 49.9848 36.3916 47.2933C36.927 44.6018 38.2484 42.1295 40.1889 40.1891C42.1294 38.2486 44.6016 36.9271 47.2931 36.3918C49.9846 35.8564 52.7744 36.1312 55.3097 37.1813C57.8451 38.2315 60.012 40.0099 61.5367 42.2916C63.0613 44.5734 63.875 47.2559 63.875 50.0002C63.875 51.8223 63.5161 53.6265 62.8188 55.3099C62.1216 56.9933 61.0995 58.5229 59.8111 59.8113C58.5227 61.0997 56.9931 62.1217 55.3097 62.819C53.6264 63.5163 51.8221 63.8752 50 63.8752Z" fill="white"/>
</svg>
