<svg width="100" height="100" viewBox="0 0 100 100" fill="none" xmlns="http://www.w3.org/2000/svg">
<path d="M81 54.1666C80.0833 54.1666 79.125 53.875 78.2083 53.6667C76.352 53.2576 74.5278 52.7145 72.75 52.0416C70.817 51.3384 68.6923 51.375 66.7846 52.1442C64.8769 52.9134 63.3212 54.361 62.4167 56.2083L61.5 58.0833C57.4417 55.8257 53.7124 53.0218 50.4167 49.75C47.1449 46.4542 44.3409 42.725 42.0833 38.6666L43.8333 37.5C45.6807 36.5955 47.1282 35.0397 47.8975 33.132C48.6667 31.2244 48.7032 29.0996 48 27.1666C47.3384 25.3851 46.7956 23.5616 46.375 21.7083C46.1667 20.7916 46 19.8333 45.875 18.875C45.369 15.9401 43.8318 13.2822 41.5401 11.3801C39.2484 9.47805 36.3529 8.45668 33.375 8.49998H20.875C19.0793 8.48312 17.301 8.85337 15.6613 9.58552C14.0215 10.3177 12.5588 11.3945 11.3726 12.7428C10.1865 14.0911 9.30472 15.6791 8.78744 17.3988C8.27017 19.1185 8.12949 20.9294 8.37499 22.7083C10.5947 40.1641 18.5668 56.3828 31.0319 68.8026C43.497 81.2225 59.7446 89.1354 77.2083 91.2917H78.7917C81.8642 91.2962 84.8308 90.1689 87.125 88.125C88.4432 86.946 89.4962 85.5007 90.2144 83.8846C90.9327 82.2686 91.2999 80.5185 91.2917 78.75V66.25C91.2406 63.3558 90.1867 60.569 88.3097 58.3653C86.4328 56.1616 83.8492 54.6776 81 54.1666ZM83.0833 79.1666C83.0826 79.7583 82.9558 80.3429 82.7116 80.8817C82.4673 81.4206 82.1111 81.9012 81.6667 82.2917C81.2025 82.6959 80.6582 82.9976 80.0695 83.1771C79.4807 83.3566 78.8607 83.4098 78.25 83.3333C62.6454 81.3325 48.151 74.1937 37.053 63.0429C25.955 51.892 18.885 37.3639 16.9583 21.75C16.892 21.1396 16.9501 20.5222 17.1292 19.9349C17.3082 19.3477 17.6045 18.8028 18 18.3333C18.3905 17.8889 18.8711 17.5327 19.4099 17.2884C19.9487 17.0441 20.5334 16.9174 21.125 16.9166H33.625C34.5939 16.8951 35.5401 17.212 36.3006 17.8128C37.0611 18.4136 37.5884 19.2607 37.7917 20.2083C37.9583 21.3472 38.1667 22.4722 38.4167 23.5833C38.898 25.7797 39.5386 27.9382 40.3333 30.0416L34.5 32.75C34.0012 32.9788 33.5526 33.3039 33.1798 33.7066C32.807 34.1093 32.5175 34.5817 32.3278 35.0966C32.1381 35.6115 32.052 36.1589 32.0744 36.7072C32.0968 37.2555 32.2272 37.7939 32.4583 38.2916C38.455 51.1365 48.7802 61.4617 61.625 67.4583C62.6394 67.8751 63.7772 67.8751 64.7917 67.4583C65.3113 67.2725 65.7888 66.9852 66.1965 66.6133C66.6042 66.2413 66.934 65.7921 67.1667 65.2917L69.75 59.4583C71.904 60.2286 74.1024 60.8687 76.3333 61.375C77.4444 61.625 78.5694 61.8333 79.7083 62C80.6559 62.2033 81.5031 62.7305 82.1039 63.4911C82.7047 64.2516 83.0216 65.1977 83 66.1667L83.0833 79.1666Z" fill="white"/>
</svg>
