<svg width="51" height="51" viewBox="0 0 51 51" fill="none" xmlns="http://www.w3.org/2000/svg">
<g clip-path="url(#clip0_8_13)">
<path d="M0.477844 38.8077L15.22 23.428L3.90441 7.0921C3.34659 7.80929 2.94816 8.76554 2.86847 9.88116L-0.000280764 35.939C-0.0799683 37.0546 0.0794067 38.0109 0.477844 38.8077Z" fill="#6C63FF"/>
<path d="M49.9636 4.38281L28.6074 24.225L45.4215 46.9359C46.3777 46.1391 47.0152 44.9437 47.1746 43.5094L50.9996 7.96875C51.159 6.53438 50.6808 5.17969 49.9636 4.38281Z" fill="#6C63FF"/>
<path d="M20.4794 31.3968L15.22 23.428L0.477844 38.8077C0.796594 39.5249 1.35441 40.003 1.99191 40.1624L42.4732 47.8124C43.5888 48.0515 44.6247 47.653 45.4216 46.9359L28.6075 24.2249L20.4794 31.3968Z" fill="#6C63FF"/>
<path d="M47.255 3.18758L5.65809 5.97665C5.02059 6.05633 4.38309 6.45477 3.90497 7.09227L15.3003 23.4282L20.5597 31.397L28.6878 24.2251L49.9643 4.38289C49.2472 3.58602 48.2909 3.10789 47.255 3.18758" fill="#6C63FF"/>
<path d="M28.0503 18.8062L28.5284 14.7421L14.5831 14.6624L12.2722 33.7077L25.819 36.8952L26.3768 32.8312L16.1768 30.839L16.7347 26.4562L26.9347 27.8905L27.4128 23.8265L17.1331 22.7905L17.6909 18.328L28.0503 18.8062Z" fill="white"/>
</g>
<defs>
<clipPath id="clip0_8_13">
<rect width="51" height="51" fill="white"/>
</clipPath>
</defs>
</svg>
