<?xml version="1.0" standalone="no"?>
<!DOCTYPE svg PUBLIC "-//W3C//DTD SVG 20010904//EN"
 "http://www.w3.org/TR/2001/REC-SVG-20010904/DTD/svg10.dtd">
<svg version="1.0" xmlns="http://www.w3.org/2000/svg"
 width="2272.000000pt" height="2272.000000pt" viewBox="0 0 2272.000000 2272.000000"
 preserveAspectRatio="xMidYMid meet">
<metadata>
Created by potrace 1.14, written by Peter Selinger 2001-2017
</metadata>
<g transform="translate(0.000000,2272.000000) scale(0.100000,-0.100000)"
fill="#000000" stroke="none">
<path d="M21195 14402 c-3 -4 -14 -7 -23 -7 -16 0 -17 -206 -17 -2955 l0
-2955 33 0 c17 0 32 -3 32 -8 0 -4 4 -6 9 -2 5 3 31 5 58 5 50 0 74 0 96 0 6
1 32 0 57 -1 25 0 50 0 55 1 6 1 14 2 19 1 25 -5 127 -4 132 1 3 4 18 3 33 -2
16 -4 33 -5 40 -1 11 7 80 5 88 -3 2 -2 20 0 39 4 18 4 34 4 34 0 0 -4 18 -4
40 0 22 4 40 5 40 1 0 -6 18 -6 123 0 20 1 40 0 43 -3 3 -3 21 -2 40 2 18 4
34 4 34 0 0 -4 18 -4 40 0 22 4 42 5 45 2 3 -3 22 -5 43 -4 20 0 60 1 87 1 93
0 99 1 104 10 3 5 6 1335 6 2957 0 2928 -1 2947 -20 2951 -11 3 -29 4 -40 3
-11 -1 -26 -1 -32 -1 -7 1 -20 1 -28 1 -8 0 -22 0 -30 0 -8 0 -22 0 -30 0 -8
0 -22 0 -30 0 -8 0 -22 0 -30 0 -8 0 -22 0 -30 0 -8 0 -22 0 -30 0 -8 0 -22 0
-30 0 -8 0 -22 0 -30 0 -8 0 -22 0 -30 0 -8 0 -22 0 -30 0 -8 0 -22 0 -30 0
-8 0 -22 0 -30 0 -8 0 -22 0 -30 0 -8 0 -22 0 -30 0 -8 0 -22 0 -30 0 -8 0
-22 0 -30 0 -8 0 -22 0 -30 0 -8 0 -22 0 -30 0 -8 0 -21 0 -27 0 -7 -1 -39 1
-71 2 -31 2 -57 0 -57 -4 0 -4 -13 -3 -30 2 -17 5 -30 5 -30 0 0 -5 -13 -5
-29 0 -15 4 -34 4 -42 0 -7 -5 -20 -5 -29 0 -9 5 -22 5 -30 0 -8 -5 -21 -5
-30 0 -9 5 -22 5 -29 0 -8 -4 -27 -4 -42 0 -16 5 -29 5 -29 0 0 -5 -13 -5 -30
0 -17 5 -30 5 -30 0 0 -5 -13 -5 -29 0 -15 4 -34 4 -41 0 -7 -5 -23 -4 -36 0
-12 5 -25 6 -29 2z"/>
<path d="M198 14080 c-3 -13 -2 -5574 1 -5591 1 -10 51 -18 51 -9 0 4 16 4 35
0 19 -4 37 -4 40 1 3 4 15 5 27 0 12 -4 37 -5 55 -1 18 5 33 4 33 0 0 -4 18
-4 40 0 22 4 42 5 45 2 6 -7 112 -5 123 1 4 3 16 1 27 -3 11 -4 34 -4 52 1 18
4 33 3 33 -1 0 -4 18 -4 40 0 22 4 40 5 40 1 0 -6 18 -6 123 0 20 1 40 0 43
-3 3 -3 21 -2 40 2 18 4 34 4 34 0 0 -4 18 -4 40 0 22 4 42 5 44 2 8 -7 176
-8 176 -1 0 4 16 3 34 -1 19 -4 37 -5 40 -3 7 8 96 9 96 2 0 -3 12 -4 28 -1
l27 4 0 1056 c0 996 1 1057 18 1056 9 -1 17 1 17 5 0 4 22 5 48 1 27 -3 60 -3
73 0 13 4 33 4 44 0 11 -4 30 -4 42 1 14 5 23 4 27 -4 3 -8 5 -8 5 -1 1 14 47
6 59 -10 5 -6 24 -38 42 -71 34 -63 55 -101 110 -200 18 -33 46 -85 63 -115
16 -30 37 -68 47 -85 9 -16 31 -55 47 -85 89 -163 108 -197 125 -222 11 -16
17 -28 13 -28 -3 0 6 -17 20 -37 14 -21 25 -41 25 -46 0 -4 10 -24 23 -45 21
-32 74 -129 134 -242 10 -19 20 -37 23 -40 3 -3 13 -20 22 -38 35 -66 102
-188 130 -235 15 -26 28 -50 28 -52 0 -2 17 -34 38 -72 22 -37 54 -95 72 -128
18 -33 47 -85 63 -115 62 -111 76 -136 103 -189 16 -29 34 -55 40 -58 19 -7
194 -9 194 -2 0 4 16 3 35 -1 19 -4 37 -4 40 0 3 5 15 7 28 4 12 -3 33 -4 47
-4 46 1 55 1 105 0 28 -1 55 -1 60 0 6 1 14 2 19 1 25 -5 127 -4 132 1 3 4 18
3 33 -2 16 -4 33 -5 40 -1 11 7 80 5 88 -3 2 -2 20 0 39 4 18 4 34 4 34 0 0
-4 18 -4 40 0 22 4 40 5 40 1 0 -6 18 -6 123 0 20 1 40 0 43 -3 3 -3 21 -2 40
2 18 4 34 4 34 0 0 -4 18 -4 40 0 22 4 42 5 45 2 3 -4 31 -5 63 -3 31 1 64 2
72 2 68 -2 93 -2 96 2 5 5 -47 101 -58 105 -4 2 -8 8 -8 13 0 5 -18 39 -40 75
-22 36 -40 67 -40 69 0 2 -41 71 -90 155 -49 84 -90 156 -90 161 0 5 -5 9 -11
9 -5 0 -8 4 -4 9 3 5 1 12 -4 15 -8 5 -135 219 -186 314 -11 20 -23 39 -27 40
-5 2 -8 7 -8 11 0 5 -43 82 -96 172 -86 147 -123 211 -158 274 -6 11 -23 38
-37 60 -14 22 -32 52 -40 67 -8 15 -45 80 -83 145 -38 65 -76 132 -86 148 -9
17 -31 53 -48 81 -18 28 -32 54 -32 58 0 4 -14 27 -30 51 -17 24 -30 48 -30
54 0 6 -4 11 -10 11 -5 0 -10 4 -10 10 0 5 -14 32 -30 60 l-30 51 35 14 c19 8
39 15 44 15 19 0 219 85 301 128 256 135 452 316 613 568 43 67 137 253 141
277 1 7 4 17 7 22 16 27 64 209 84 320 12 67 19 177 18 305 -1 164 -7 225 -38
385 -8 42 -66 237 -76 255 -4 8 -26 55 -49 105 -155 340 -423 604 -794 780
-81 39 -197 88 -203 86 -2 0 -8 1 -15 4 -7 2 -35 11 -63 20 -57 19 -50 17
-170 43 -109 24 -227 44 -275 48 -19 1 -60 6 -90 9 -30 4 -623 8 -1317 9
-1124 1 -1262 0 -1265 -14z m1554 -1120 c51 0 129 0 172 -1 44 0 83 -2 88 -5
4 -3 8 -2 8 3 0 4 30 7 67 6 95 -4 176 -5 188 -3 6 1 24 1 40 1 17 -1 82 -4
145 -6 63 -2 126 -6 140 -8 161 -26 286 -86 375 -177 70 -72 75 -79 114 -151
97 -179 99 -524 4 -696 -13 -24 -20 -43 -16 -43 4 0 3 -4 -2 -8 -6 -4 -23 -25
-39 -47 -59 -80 -132 -138 -230 -184 -39 -18 -81 -34 -95 -36 -14 -2 -26 -4
-26 -5 0 -2 -15 -6 -54 -14 -68 -15 -541 -23 -1021 -17 l-45 1 0 693 0 692 40
5 c22 3 43 5 47 3 3 -2 48 -3 100 -3z"/>
<path d="M8577 13004 c-1 -1 -22 -5 -47 -8 -25 -3 -63 -8 -85 -11 -32 -4 -132
-24 -155 -30 -3 -1 -18 -5 -35 -10 -16 -4 -59 -17 -95 -28 -36 -12 -67 -22
-70 -23 -95 -26 -350 -165 -470 -256 -81 -61 -236 -207 -300 -283 -74 -89
-160 -208 -160 -224 0 -5 -4 -11 -9 -13 -22 -9 -152 -268 -205 -411 -107 -288
-158 -599 -160 -967 0 -186 12 -389 28 -475 4 -16 9 -50 12 -75 3 -25 7 -53
10 -62 3 -10 7 -30 10 -45 2 -16 7 -39 11 -53 10 -40 11 -44 16 -71 10 -54 88
-283 117 -344 5 -11 20 -46 34 -77 14 -32 37 -76 51 -98 14 -22 25 -46 25 -54
0 -8 3 -16 8 -18 4 -1 32 -41 62 -88 30 -47 57 -87 60 -90 4 -3 19 -23 36 -45
87 -118 339 -365 372 -365 7 0 12 -4 12 -9 0 -23 352 -221 392 -221 8 0 18 -4
24 -9 8 -7 97 -40 129 -47 6 -1 48 -12 94 -24 46 -11 101 -23 122 -25 22 -2
43 -7 48 -9 12 -8 188 -18 301 -18 121 0 228 9 327 28 43 8 89 17 103 19 36 6
184 51 206 63 11 5 30 14 44 20 67 26 184 90 272 148 141 93 229 175 358 331
6 7 20 28 31 48 12 19 22 35 23 35 1 0 3 -140 3 -311 0 -170 3 -312 6 -315 3
-3 26 -5 51 -4 56 1 63 1 101 1 36 -1 53 -1 125 0 30 0 64 0 75 -1 133 -4 205
-4 205 1 0 3 12 5 28 3 24 -4 38 -4 92 -4 8 0 38 0 65 0 28 -1 55 -1 60 0 6 1
14 2 19 1 25 -5 127 -4 132 1 3 4 18 3 33 -2 16 -4 34 -4 40 0 7 4 25 5 39 3
24 -3 37 -3 92 -3 8 0 36 0 62 -1 27 -1 50 0 54 3 3 3 20 2 38 -2 19 -4 38 -5
43 -1 5 3 9 953 8 2236 l0 2230 -678 0 c-404 0 -681 -4 -685 -9 -3 -5 -5 -144
-5 -308 0 -164 -3 -298 -6 -298 -3 1 -27 31 -54 69 -49 69 -140 168 -218 234
-54 46 -200 145 -254 172 -22 11 -52 28 -67 38 -16 10 -28 15 -28 12 0 -4 -10
-1 -22 7 -39 26 -184 75 -271 93 -9 2 -20 6 -25 8 -4 3 -29 8 -57 11 -27 4
-59 9 -70 11 -63 13 -139 18 -298 20 -97 0 -179 0 -180 -1z m723 -1199 c14 -3
41 -8 60 -11 97 -16 236 -79 337 -150 236 -168 382 -427 420 -745 11 -94 8
-333 -6 -419 -24 -150 -76 -303 -132 -390 -9 -14 -29 -45 -45 -70 -44 -68
-229 -250 -254 -250 -6 0 -10 -3 -10 -8 0 -8 -8 -13 -114 -64 -43 -21 -84 -38
-91 -38 -8 0 -17 -5 -20 -10 -4 -6 -11 -8 -16 -5 -5 4 -15 3 -21 -2 -7 -4 -17
-8 -23 -9 -5 -1 -23 -5 -40 -9 -16 -4 -93 -8 -170 -10 -133 -4 -189 2 -305 33
-185 49 -389 199 -503 371 -38 56 -109 185 -106 193 0 2 -2 10 -5 18 -18 52
-46 150 -51 180 -29 170 -36 356 -20 495 14 119 61 293 97 359 7 11 13 26 14
31 2 13 56 99 87 139 60 79 197 206 247 230 24 11 57 31 71 43 19 15 138 62
173 69 16 3 33 7 38 10 13 8 49 15 118 21 36 3 67 6 68 8 5 5 172 -4 202 -10z"/>
<path d="M14105 12942 c-20 -3 -20 -10 -19 -1390 1 -763 4 -1416 8 -1452 11
-113 22 -190 36 -260 6 -30 14 -68 16 -85 3 -16 9 -41 14 -55 6 -14 11 -34 13
-45 2 -11 7 -27 10 -35 3 -8 13 -40 23 -70 9 -30 25 -71 34 -90 10 -19 18 -39
18 -43 -1 -13 96 -202 104 -205 5 -2 8 -10 8 -18 0 -8 5 -14 10 -14 6 0 10 -5
10 -10 0 -9 65 -109 79 -120 3 -3 19 -22 35 -43 52 -70 191 -205 266 -257 19
-14 37 -28 40 -31 3 -3 43 -28 90 -56 128 -75 308 -148 440 -178 9 -2 85 -17
110 -22 148 -28 427 -37 590 -18 67 7 243 41 270 52 8 3 20 7 25 8 6 0 17 4
25 7 8 4 42 16 75 28 104 38 124 46 131 52 3 4 31 19 62 34 152 73 373 255
502 412 l35 43 -1 -288 c0 -158 1 -293 3 -298 4 -11 26 -15 116 -18 31 -1 57
1 57 4 0 4 16 3 35 -1 19 -4 37 -4 40 0 3 5 15 7 28 4 12 -3 33 -4 47 -4 46 1
55 1 105 0 28 -1 55 -1 60 0 6 1 14 2 19 1 25 -5 127 -4 132 1 3 4 18 3 33 -2
16 -4 33 -5 40 -1 11 7 80 5 88 -3 2 -2 20 0 39 4 18 4 34 4 34 0 0 -4 18 -4
40 0 22 4 40 5 40 1 0 -3 19 -5 42 -4 24 1 61 2 83 2 22 1 49 1 60 2 11 0 26
0 33 0 30 -2 39 -2 67 -1 17 0 49 -1 72 -2 24 -1 46 2 50 5 11 12 10 4448 -2
4455 -12 8 -1354 10 -1356 2 -1 -3 -2 -572 -3 -1265 -2 -693 -6 -1289 -10
-1325 -14 -119 -48 -246 -87 -322 -12 -24 -22 -45 -22 -48 1 -10 -78 -117
-115 -156 -128 -136 -295 -216 -497 -240 -78 -9 -196 -9 -265 1 -30 4 -64 8
-75 9 -11 1 -24 4 -30 7 -5 3 -32 12 -60 19 -129 34 -287 143 -370 255 -16 22
-32 42 -35 45 -25 24 -129 270 -114 270 3 0 1 8 -5 18 -5 9 -12 37 -15 62 -3
25 -9 56 -12 70 -3 14 -7 605 -8 1315 l-1 1290 -660 0 c-363 0 -669 -1 -680
-3z"/>
</g>
</svg>
